<svg width="248" height="40" viewBox="0 0 248 40" fill="none" xmlns="http://www.w3.org/2000/svg">
<path d="M14.3063 6.81677C16.8396 2.27226 18.1062 0 20 0C21.8938 0 23.1604 2.27224 25.6936 6.81675L26.349 7.99247C27.069 9.28387 27.4288 9.92959 27.9902 10.3556C28.5514 10.7817 29.2502 10.9398 30.6482 11.2561L31.921 11.5441C36.8402 12.6571 39.3 13.2137 39.8852 15.0955C40.4704 16.9772 38.7936 18.9382 35.4398 22.8598L34.5722 23.8744C33.6192 24.9888 33.1426 25.546 32.9282 26.2354C32.714 26.9248 32.786 27.6682 32.93 29.1552L33.0612 30.5088C33.5682 35.7413 33.8218 38.3575 32.2898 39.5205C30.7576 40.6835 28.4546 39.6231 23.8486 37.5025L22.657 36.9537C21.3482 36.3511 20.6938 36.0497 20 36.0497C19.3062 36.0497 18.6518 36.3511 17.343 36.9537L16.1514 37.5025C11.5453 39.6231 9.24235 40.6835 7.71029 39.5205C6.17824 38.3575 6.43176 35.7413 6.9388 30.5088L7.06995 29.1552C7.21405 27.6682 7.28609 26.9248 7.07171 26.2354C6.85736 25.546 6.38086 24.9888 5.42784 23.8744L4.5602 22.8598C1.2065 18.9382 -0.470356 16.9772 0.114844 15.0955C0.700043 13.2137 3.15972 12.6571 8.07907 11.5441L9.35177 11.2561C10.7497 10.9398 11.4486 10.7817 12.0099 10.3556C12.5711 9.92959 12.931 9.28389 13.6509 7.99247L14.3063 6.81677Z" fill="#70819B"/>
<path d="M66.3063 6.81677C68.8396 2.27226 70.1062 0 72 0C73.8938 0 75.1604 2.27224 77.6936 6.81675L78.349 7.99247C79.069 9.28387 79.4288 9.92959 79.9902 10.3556C80.5514 10.7817 81.2502 10.9398 82.6482 11.2561L83.921 11.5441C88.8402 12.6571 91.3 13.2137 91.8852 15.0955C92.4704 16.9772 90.7936 18.9382 87.4398 22.8598L86.5722 23.8744C85.6192 24.9888 85.1426 25.546 84.9282 26.2354C84.714 26.9248 84.786 27.6682 84.93 29.1552L85.0612 30.5088C85.5682 35.7413 85.8218 38.3575 84.2898 39.5205C82.7576 40.6835 80.4546 39.6231 75.8486 37.5025L74.657 36.9537C73.3482 36.3511 72.6938 36.0497 72 36.0497C71.3062 36.0497 70.6518 36.3511 69.343 36.9537L68.1514 37.5025C63.5453 39.6231 61.2424 40.6835 59.7103 39.5205C58.1782 38.3575 58.4318 35.7413 58.9388 30.5088L59.07 29.1552C59.2141 27.6682 59.2861 26.9248 59.0717 26.2354C58.8574 25.546 58.3809 24.9888 57.4278 23.8744L56.5602 22.8598C53.2065 18.9382 51.5296 16.9772 52.1148 15.0955C52.7 13.2137 55.1597 12.6571 60.0791 11.5441L61.3518 11.2561C62.7497 10.9398 63.4486 10.7817 64.0099 10.3556C64.5711 9.92959 64.931 9.28389 65.6509 7.99247L66.3063 6.81677Z" fill="#70819B"/>
<path d="M118.306 6.81677C120.84 2.27226 122.106 0 124 0C125.894 0 127.16 2.27224 129.694 6.81675L130.349 7.99247C131.069 9.28387 131.429 9.92959 131.99 10.3556C132.551 10.7817 133.25 10.9398 134.648 11.2561L135.921 11.5441C140.84 12.6571 143.3 13.2137 143.885 15.0955C144.47 16.9772 142.794 18.9382 139.44 22.8598L138.572 23.8744C137.619 24.9888 137.143 25.546 136.928 26.2354C136.714 26.9248 136.786 27.6682 136.93 29.1552L137.061 30.5088C137.568 35.7413 137.822 38.3575 136.29 39.5205C134.758 40.6835 132.455 39.6231 127.849 37.5025L126.657 36.9537C125.348 36.3511 124.694 36.0497 124 36.0497C123.306 36.0497 122.652 36.3511 121.343 36.9537L120.151 37.5025C115.545 39.6231 113.242 40.6835 111.71 39.5205C110.178 38.3575 110.432 35.7413 110.939 30.5088L111.07 29.1552C111.214 27.6682 111.286 26.9248 111.072 26.2354C110.857 25.546 110.381 24.9888 109.428 23.8744L108.56 22.8598C105.207 18.9382 103.53 16.9772 104.115 15.0955C104.7 13.2137 107.16 12.6571 112.079 11.5441L113.352 11.2561C114.75 10.9398 115.449 10.7817 116.01 10.3556C116.571 9.92959 116.931 9.28389 117.651 7.99247L118.306 6.81677Z" fill="#70819B"/>
<path d="M170.306 6.81677C172.84 2.27226 174.106 0 176 0C177.894 0 179.16 2.27224 181.694 6.81675L182.349 7.99247C183.069 9.28387 183.429 9.92959 183.99 10.3556C184.551 10.7817 185.25 10.9398 186.648 11.2561L187.921 11.5441C192.84 12.6571 195.3 13.2137 195.885 15.0955C196.47 16.9772 194.794 18.9382 191.44 22.8598L190.572 23.8744C189.619 24.9888 189.143 25.546 188.928 26.2354C188.714 26.9248 188.786 27.6682 188.93 29.1552L189.061 30.5088C189.568 35.7413 189.822 38.3575 188.29 39.5205C186.758 40.6835 184.455 39.6231 179.849 37.5025L178.657 36.9537C177.348 36.3511 176.694 36.0497 176 36.0497C175.306 36.0497 174.652 36.3511 173.343 36.9537L172.151 37.5025C167.545 39.6231 165.242 40.6835 163.71 39.5205C162.178 38.3575 162.432 35.7413 162.939 30.5088L163.07 29.1552C163.214 27.6682 163.286 26.9248 163.072 26.2354C162.857 25.546 162.381 24.9888 161.428 23.8744L160.56 22.8598C157.207 18.9382 155.53 16.9772 156.115 15.0955C156.7 13.2137 159.16 12.6571 164.079 11.5441L165.352 11.2561C166.75 10.9398 167.449 10.7817 168.01 10.3556C168.571 9.92959 168.931 9.28389 169.651 7.99247L170.306 6.81677Z" fill="#70819B"/>
<path d="M222.306 6.81677C224.84 2.27226 226.106 0 228 0C229.894 0 231.16 2.27224 233.694 6.81675L234.349 7.99247C235.069 9.28387 235.429 9.92959 235.99 10.3556C236.551 10.7817 237.25 10.9398 238.648 11.2561L239.921 11.5441C244.84 12.6571 247.3 13.2137 247.885 15.0955C248.47 16.9772 246.794 18.9382 243.44 22.8598L242.572 23.8744C241.619 24.9888 241.143 25.546 240.928 26.2354C240.714 26.9248 240.786 27.6682 240.93 29.1552L241.061 30.5088C241.568 35.7413 241.822 38.3575 240.29 39.5205C238.758 40.6835 236.455 39.6231 231.849 37.5025L230.657 36.9537C229.348 36.3511 228.694 36.0497 228 36.0497C227.306 36.0497 226.652 36.3511 225.343 36.9537L224.151 37.5025C219.545 39.6231 217.242 40.6835 215.71 39.5205C214.178 38.3575 214.432 35.7413 214.939 30.5088L215.07 29.1552C215.214 27.6682 215.286 26.9248 215.072 26.2354C214.857 25.546 214.381 24.9888 213.428 23.8744L212.56 22.8598C209.207 18.9382 207.53 16.9772 208.115 15.0955C208.7 13.2137 211.16 12.6571 216.079 11.5441L217.352 11.2561C218.75 10.9398 219.449 10.7817 220.01 10.3556C220.571 9.92959 220.931 9.28389 221.651 7.99247L222.306 6.81677Z" fill="#70819B"/>
</svg>
